<?xml version="1.0" encoding="UTF-8"?>
<svg width="940.81pt" height="288.01pt" font-family="Verdana,sans-serif" font-size="92.5" xmlns:cc="http://creativecommons.org/ns#" xmlns:dc="http://purl.org/dc/elements/1.1/" xmlns:rdf="http://www.w3.org/1999/02/22-rdf-syntax-ns#" version="1.1" viewBox="0 0 9408.1 2880.1" xmlns:xlink="http://www.w3.org/1999/xlink" xmlns="http://www.w3.org/2000/svg">
<metadata>
<rdf:RDF>
<cc:Work rdf:about="">
<dc:format>image/svg+xml</dc:format>
<dc:type rdf:resource="http://purl.org/dc/dcmitype/StillImage"/>
<dc:title/>
</cc:Work>
</rdf:RDF>
</metadata>
<defs>
<linearGradient id="f" gradientUnits="userSpaceOnUse">
<stop stop-color="#fff" offset="0"/>
<stop stop-color="#f5f5f5" offset=".5357"/>
<stop stop-color="#f5f5f5" stop-opacity="0" offset="1"/>
</linearGradient>
</defs>
<link href="" rel="stylesheet" type="text/css"/>
<style type="text/css"/>
<linearGradient id="j" x1="789" x2="8445.3" y1="793.6" y2="793.6" gradientUnits="userSpaceOnUse">
<stop stop-color="#fff" offset=".0506"/>
<stop stop-color="#d5d5d5" offset=".0639"/>
<stop stop-color="#9f9f9f" offset=".089"/>
<stop stop-color="#7d7d7d" offset=".1078"/>
<stop stop-color="#707070" offset=".118"/>
<stop stop-color="#707070" offset=".8764"/>
<stop stop-color="#7a7a7a" offset=".8873"/>
<stop stop-color="#949494" offset=".9058"/>
<stop stop-color="#bfbfbf" offset=".9294"/>
<stop stop-color="#fff" offset=".9551"/>
</linearGradient>
<linearGradient id="k" gradientUnits="userSpaceOnUse">
<stop stop-color="#fff" offset="0"/>
<stop stop-color="#f5f5f5" offset=".53803"/>
<stop stop-color="#f5f5f5" stop-opacity="0" offset="1"/>
</linearGradient>
<linearGradient id="i" x1="47.55" x2="203.1" y1="64.36" y2="64.36" gradientTransform="matrix(-15.068 0 0 10.111 9115.7 -11.84)" xlink:href="#k"/>
<linearGradient id="h" x1="47.55" x2="203.1" y1="64.36" y2="64.36" gradientTransform="matrix(9.8868,0,0,10.111,343.22,-11.84)" xlink:href="#f"/>
<linearGradient id="g" x1="54.29" x2="697.14" y1="405.22" y2="405.22" gradientTransform="matrix(9.0996,0,0,1.0295,770.03,221.77)" gradientUnits="userSpaceOnUse">
<stop stop-color="#00121f" offset="0"/>
<stop stop-color="#00121f" offset=".006"/>
<stop stop-color="#00121f" offset=".012"/>
<stop stop-color="#00121f" offset=".0181"/>
<stop stop-color="#00121f" offset=".0241"/>
<stop stop-color="#001930" offset=".0301"/>
<stop stop-color="#001930" offset=".0361"/>
<stop stop-color="#240036" offset=".0422"/>
<stop stop-color="#24003e" offset=".0482"/>
<stop stop-color="#1f0043" offset=".0542"/>
<stop stop-color="#190048" offset=".0602"/>
<stop stop-color="#330052" offset=".0663"/>
<stop stop-color="#2c0059" offset=".0723"/>
<stop stop-color="#240061" offset=".0783"/>
<stop stop-color="#1f006a" offset=".0843"/>
<stop stop-color="#2c0078" offset=".0904"/>
<stop stop-color="#360087" offset=".0964"/>
<stop stop-color="#390096" offset=".1024"/>
<stop stop-color="#4c00a8" offset=".1084"/>
<stop stop-color="#5500bc" offset=".1145"/>
<stop stop-color="#5200cd" offset=".1205"/>
<stop stop-color="#6100e2" offset=".1265"/>
<stop stop-color="#6b00f8" offset=".1325"/>
<stop stop-color="#6e00ff" offset=".1386"/>
<stop stop-color="#7000ff" offset=".1446"/>
<stop stop-color="#6e00ff" offset=".1506"/>
<stop stop-color="#6c00ff" offset=".1566"/>
<stop stop-color="#6e00ff" offset=".1626"/>
<stop stop-color="#7000ff" offset=".1687"/>
<stop stop-color="#6f00ff" offset=".1747"/>
<stop stop-color="#6c00ff" offset=".1807"/>
<stop stop-color="#6a00ff" offset=".1867"/>
<stop stop-color="#6700ff" offset=".1928"/>
<stop stop-color="#6700ff" offset=".1988"/>
<stop stop-color="#6100ff" offset=".2048"/>
<stop stop-color="#5c00ff" offset=".2108"/>
<stop stop-color="#5700ff" offset=".2169"/>
<stop stop-color="#5900ff" offset=".2229"/>
<stop stop-color="#5400ff" offset=".2289"/>
<stop stop-color="#4e00ff" offset=".2349"/>
<stop stop-color="#4300ff" offset=".241"/>
<stop stop-color="#30f" offset=".247"/>
<stop stop-color="#1f00ff" offset=".253"/>
<stop stop-color="#0019ff" offset=".259"/>
<stop stop-color="#003cff" offset=".2651"/>
<stop stop-color="#0050ff" offset=".2711"/>
<stop stop-color="#0061ff" offset=".2771"/>
<stop stop-color="#0070ff" offset=".2831"/>
<stop stop-color="#007fff" offset=".2892"/>
<stop stop-color="#008dff" offset=".2952"/>
<stop stop-color="#009dff" offset=".3012"/>
<stop stop-color="#00a3fa" offset=".3072"/>
<stop stop-color="#00b1f5" offset=".3132"/>
<stop stop-color="#00b6ed" offset=".3193"/>
<stop stop-color="#00bbe6" offset=".3253"/>
<stop stop-color="#00c4e1" offset=".3313"/>
<stop stop-color="#00cddd" offset=".3373"/>
<stop stop-color="#00d6da" offset=".3434"/>
<stop stop-color="#00dfd8" offset=".3494"/>
<stop stop-color="#00e3d5" offset=".3554"/>
<stop stop-color="#00ebd4" offset=".3614"/>
<stop stop-color="#00f6d5" offset=".3675"/>
<stop stop-color="#00fdd4" offset=".3735"/>
<stop stop-color="#00ffcf" offset=".3795"/>
<stop stop-color="#00ffca" offset=".3855"/>
<stop stop-color="#00ffc4" offset=".3916"/>
<stop stop-color="#00ffbf" offset=".3976"/>
<stop stop-color="#00ffba" offset=".4036"/>
<stop stop-color="#00ffb5" offset=".4096"/>
<stop stop-color="#00ffb2" offset=".4157"/>
<stop stop-color="#00ffad" offset=".4217"/>
<stop stop-color="#0fa" offset=".4277"/>
<stop stop-color="#00ffa6" offset=".4337"/>
<stop stop-color="#00ffa4" offset=".4398"/>
<stop stop-color="#00ffa0" offset=".4458"/>
<stop stop-color="#00ff9c" offset=".4518"/>
<stop stop-color="#00ff97" offset=".4578"/>
<stop stop-color="#00ff94" offset=".4639"/>
<stop stop-color="#00ff8e" offset=".4699"/>
<stop stop-color="#00ff8b" offset=".4759"/>
<stop stop-color="#00ff82" offset=".4819"/>
<stop stop-color="#00ff7e" offset=".4879"/>
<stop stop-color="#00ff76" offset=".494"/>
<stop stop-color="#00ff6a" offset=".5"/>
<stop stop-color="#00ff5c" offset=".506"/>
<stop stop-color="#00ff46" offset=".5121"/>
<stop stop-color="#00ff24" offset=".5181"/>
<stop stop-color="#39ff00" offset=".5241"/>
<stop stop-color="#59ff00" offset=".5301"/>
<stop stop-color="#73ff00" offset=".5361"/>
<stop stop-color="#8aff00" offset=".5422"/>
<stop stop-color="#9dff00" offset=".5482"/>
<stop stop-color="#abff00" offset=".5542"/>
<stop stop-color="#bbfa00" offset=".5602"/>
<stop stop-color="#c7f600" offset=".5663"/>
<stop stop-color="#d5f100" offset=".5723"/>
<stop stop-color="#dfec00" offset=".5783"/>
<stop stop-color="#eae600" offset=".5843"/>
<stop stop-color="#f3e100" offset=".5904"/>
<stop stop-color="#fdda00" offset=".5964"/>
<stop stop-color="#ffce00" offset=".6024"/>
<stop stop-color="#ffc000" offset=".6084"/>
<stop stop-color="#ffb300" offset=".6145"/>
<stop stop-color="#ffa800" offset=".6205"/>
<stop stop-color="#ff9c00" offset=".6265"/>
<stop stop-color="#ff9100" offset=".6325"/>
<stop stop-color="#ff8700" offset=".6385"/>
<stop stop-color="#ff7c00" offset=".6446"/>
<stop stop-color="#ff7000" offset=".6506"/>
<stop stop-color="#ff6a00" offset=".6566"/>
<stop stop-color="#ff5e00" offset=".6626"/>
<stop stop-color="#f50" offset=".6687"/>
<stop stop-color="#ff4800" offset=".6747"/>
<stop stop-color="#ff4100" offset=".6807"/>
<stop stop-color="#f30" offset=".6867"/>
<stop stop-color="#ff2c00" offset=".6928"/>
<stop stop-color="#ff1200" offset=".6988"/>
<stop stop-color="#ff0012" offset=".7048"/>
<stop stop-color="#ff0028" offset=".7108"/>
<stop stop-color="#ff002c" offset=".7169"/>
<stop stop-color="#ff0036" offset=".7229"/>
<stop stop-color="#ff003c" offset=".7289"/>
<stop stop-color="#ff0041" offset=".7349"/>
<stop stop-color="#ff0041" offset=".741"/>
<stop stop-color="#ff0043" offset=".747"/>
<stop stop-color="#ff0043" offset=".753"/>
<stop stop-color="#ff004c" offset=".759"/>
<stop stop-color="#ff0048" offset=".7651"/>
<stop stop-color="#ff004a" offset=".7711"/>
<stop stop-color="#f7004a" offset=".7771"/>
<stop stop-color="#f3004e" offset=".7831"/>
<stop stop-color="#e80046" offset=".7892"/>
<stop stop-color="#e00046" offset=".7952"/>
<stop stop-color="#d70043" offset=".8012"/>
<stop stop-color="#cf003e" offset=".8072"/>
<stop stop-color="#c90043" offset=".8133"/>
<stop stop-color="#bf003e" offset=".8193"/>
<stop stop-color="#b50039" offset=".8253"/>
<stop stop-color="#af0039" offset=".8313"/>
<stop stop-color="#a9003c" offset=".8374"/>
<stop stop-color="#9d0036" offset=".8434"/>
<stop stop-color="#970030" offset=".8494"/>
<stop stop-color="#8f0030" offset=".8554"/>
<stop stop-color="#880030" offset=".8615"/>
<stop stop-color="#800028" offset=".8675"/>
<stop stop-color="#760028" offset=".8735"/>
<stop stop-color="#6e001f" offset=".8795"/>
<stop stop-color="#640019" offset=".8855"/>
<stop stop-color="#620024" offset=".8916"/>
<stop stop-color="#620024" offset=".8976"/>
<stop stop-color="#570019" offset=".9036"/>
<stop stop-color="#4a0000" offset=".9096"/>
<stop stop-color="#550024" offset=".9157"/>
<stop stop-color="#460019" offset=".9217"/>
<stop stop-color="#460019" offset=".9277"/>
<stop stop-color="#300" offset=".9337"/>
<stop stop-color="#300" offset=".9398"/>
<stop stop-color="#300" offset=".9458"/>
<stop stop-color="#300" offset=".9518"/>
<stop stop-color="#300019" offset=".9578"/>
<stop stop-color="#300019" offset=".9639"/>
<stop stop-color="#300019" offset=".9699"/>
<stop stop-color="#300019" offset=".9759"/>
<stop stop-color="#300019" offset=".9819"/>
<stop stop-color="#300019" offset=".9879"/>
<stop stop-color="#300019" offset=".994"/>
<stop stop-color="#300019" offset="1"/>
</linearGradient>
<path d="m8445.3 125.52v934.9l-4187.6 235.2v166.06h-169.9v-166.06l-3298.8-235.2v-934.9z" fill="url(#j)"/>
<path d="m1264 472.74h5849.8v332.37h-5849.8z" fill="url(#g)"/>
<path d="m813.3 472.74h1537.9v332.37h-1537.9z" fill="url(#h)"/>
<path d="m8399.2 472.74h-2344v332.37h2344z" fill="url(#i)"/>
<path d="m1499.6 703.62h-457.07" fill="none" stroke="#000" stroke-width="25.51"/>
<path d="m933.68 692.65 151.84 57.44v-95.74z"/>
<path d="m7784.6 700.81h457.07" fill="none" stroke="#000" stroke-width="25.51"/>
<path d="m8350.5 711.79-151.84-57.44v95.74z"/>
<path d="m6941.5 956.58v-151.47m-1772.7 151.47v-151.47m-886.3 151.47v-151.47m-886.3 151.47v-151.47m-886.3 151.47v-151.47m3545.3 151.47v-151.47" fill="none" stroke="#fff" stroke-width="10"/>
<path d="m887.6 1459h8340.4" fill="none" stroke="#000" stroke-width="10"/>
<path d="m9230.5 1882.5v-471.96m-1137.4-0.04v468.24h-625.39m739.49-468.24v468.37m-4669.8-468.37v531.41m4076.1-429.51v-101.82m-449.5 219.42v-219.46m-446.3 101.86v-101.82m-382.9 469.42-0.01-469.46m-899.49-0.04v471.77m-3220-471.77v328.11h182.55m-1517.4-226.21v-101.82m3037.6 113.72v-113.72m56.9 83.62v-83.69m56.9 83.69v-83.69m-290.2 301.99v-188.25m176.4 0.05h-176.49m-402.61 214.3h195.63m550.87 165.3v-493.33m174.2 296.13v-296.15m2638.1 468.25h-677.76m-642.24 0h-144.03m2874 0h-105.21m1030 0h-94.81m-2540-248.8v-219.46m-1809.1-0.04v294.18m-3253.4-294.18v294.18" fill="none" stroke="#7f7f7f" stroke-width="10"/>
<path d="m5166.6 2556.5v-66.49" fill="none" stroke="#919191" stroke-width="5.67"/>
<path d="m5546.1 2556.5v-66.49" fill="none" stroke="#919191" stroke-width="5.67"/>
<path d="m4787 2556.5v-66.49" fill="none" stroke="#919191" stroke-width="5.67"/>
<path d="m4407.4 2556.5v-66.49" fill="none" stroke="#919191" stroke-width="5.67"/>
<path d="m4027.9 2556.5v-66.49" fill="none" stroke="#919191" stroke-width="5.67"/>
<path d="m3648.3 2556.5v-66.49" fill="none" stroke="#919191" stroke-width="5.67"/>
<path d="m3268.7 2556.5v-66.49" fill="none" stroke="#919191" stroke-width="5.67"/>
<path d="m2889.2 2556.5v-66.49" fill="none" stroke="#919191" stroke-width="5.67"/>
<path d="m2509.6 2556.5v-66.49" fill="none" stroke="#919191" stroke-width="5.67"/>
<path d="m2131.3 2556.5v-66.49" fill="none" stroke="#919191" stroke-width="5.67"/>
<path d="m1748.3 2556.5v-66.49" fill="none" stroke="#919191" stroke-width="5.67"/>
<path d="m1748.3 2556.5v-66.49m-379.6 66.49v-66.49" fill="none" stroke="#919191" stroke-width="5.67"/>
<path d="m990.41 2556.5v-66.49" fill="none" stroke="#919191" stroke-width="5.67"/>
<path d="m5925.7 2556.5v-66.49" fill="none" stroke="#919191" stroke-width="5.67"/>
<path d="m6305.3 2556.5v-66.49" fill="none" stroke="#919191" stroke-width="5.67"/>
<path d="m6684.8 2556.5v-66.49" fill="none" stroke="#919191" stroke-width="5.67"/>
<path d="m7064.4 2556.5v-66.49" fill="none" stroke="#919191" stroke-width="5.67"/>
<path d="m7444 2556.5v-66.49" fill="none" stroke="#919191" stroke-width="5.67"/>
<path d="m7823.5 2556.5v-66.49" fill="none" stroke="#919191" stroke-width="5.67"/>
<path d="m8203.1 2556.5v-66.49" fill="none" stroke="#919191" stroke-width="5.67"/>
<path d="m8582.7 2556.5v-66.49" fill="none" stroke="#919191" stroke-width="5.67"/>
<path d="m8962.3 2556.5v-66.49" fill="none" stroke="#919191" stroke-width="5.67"/>
<text x="1689.75" y="951.09003"><tspan x="1689.75" y="951.09003" fill="#ffffff" font-size="140px">400 nm</tspan></text>
<text x="2573.71" y="951.09003"><tspan x="2573.71" y="951.09003" fill="#ffffff" font-size="140px">450 nm</tspan></text>
<text x="4341.6602" y="951.09003"><tspan x="4341.6602" y="951.09003" fill="#ffffff" font-size="140px">550 nm</tspan></text>
<text x="3457.6799" y="951.09003"><tspan x="3457.6799" y="951.09003" fill="#ffffff" font-size="140px">500 nm</tspan></text>
<text x="5225.6299" y="951.09003"><tspan x="5225.6299" y="951.09003" fill="#ffffff" font-size="140px">600 nm</tspan></text>
<text x="6109.6099" y="951.09003"><tspan x="6109.6099" y="951.09003" fill="#ffffff" font-size="140px">650 nm</tspan></text>
<text x="6993.5698" y="951.09003"><tspan x="6993.5698" y="951.09003" fill="#ffffff" font-size="140px">700 nm</tspan></text>
<text x="2131.6201" y="377.10001"><tspan x="2131.6201" y="377.10001" fill="#ffffff" font-size="210px">Das für den Menschen sichtbare Spektrum (Licht)</tspan></text>
<text x="7613.4302" y="2112.0901"><tspan x="7613.4302" y="2112.0901">1 km</tspan></text>
<text x="8743.3701" y="2112.0901"><tspan x="8743.3701" y="2112.0901">1 Mm</tspan></text>
<text x="6478.5698" y="2112.0901"><tspan x="6478.5698" y="2112.0901">1 m</tspan></text>
<text x="5691.3501" y="2112.0901"><tspan x="5691.3501" y="2112.0901">1 cm</tspan></text>
<text x="5308.4199" y="2112.0901"><tspan x="5308.4199" y="2112.0901">1 mm</tspan></text>
<text x="3059.3999" y="2112.0901"><tspan x="3059.3999" y="2112.0901">1 nm</tspan></text>
<text x="4189.3999" y="2112.0901"><tspan x="4189.3999" y="2112.0901">1 µm</tspan></text>
<text x="1929.4" y="2112.0901"><tspan x="1929.4" y="2112.0901">1 pm</tspan></text>
<text x="779.40002" y="2112.0901"><tspan x="779.40002" y="2112.0901">1 fm</tspan></text>
<text x="2709.4199" y="2112.0901"><tspan x="2709.4199" y="2112.0901">1 Å</tspan></text>
<text x="7773.96" y="622.10999"><tspan x="7773.96" y="622.10999" font-size="140px">Infrarot</tspan></text>
<text x="863.45001" y="622.10999"><tspan x="863.45001" y="622.10999" font-size="140px">Ultraviolett</tspan></text>
<text x="5045.8799" y="2682.27"><tspan x="5045.8799" y="2682.27" font-size="100px">10</tspan></text>
<text x="5195" y="2618.01"><tspan x="5195" y="2618.01" font-size="80px">12</tspan></text>
<text x="4909.6802" y="2800"><tspan x="4909.6802" y="2800" font-size="95px">1 Terahertz</tspan></text>
<text x="5425.4399" y="2682.27"><tspan x="5425.4399" y="2682.27" font-size="100px">10</tspan></text>
<text x="5572.5" y="2618.01"><tspan x="5572.5" y="2618.01" font-size="80px">11</tspan></text>
<text x="4666.3198" y="2682.27"><tspan x="4666.3198" y="2682.27" font-size="100px">10</tspan></text>
<text x="4815" y="2618.01"><tspan x="4815" y="2618.01" font-size="80px">13</tspan></text>
<text x="4286.7402" y="2682.27"><tspan x="4286.7402" y="2682.27" font-size="100px">10</tspan></text>
<text x="4435" y="2618.01"><tspan x="4435" y="2618.01" font-size="80px">14</tspan></text>
<text x="3907.1699" y="2682.27"><tspan x="3907.1699" y="2682.27" font-size="100px">10</tspan></text>
<text x="4052.5" y="2618.01"><tspan x="4052.5" y="2618.01" font-size="80px">15</tspan></text>
<text x="3764.27" y="2800"><tspan x="3764.27" y="2800" font-size="95px">1 Petahertz</tspan></text>
<text x="3527.6001" y="2682.27"><tspan x="3527.6001" y="2682.27" font-size="100px">10</tspan></text>
<text x="3670" y="2618.01"><tspan x="3670" y="2618.01" font-size="80px">16</tspan></text>
<text x="3148.05" y="2682.27"><tspan x="3148.05" y="2682.27" font-size="100px">10</tspan></text>
<text x="3290" y="2618.01"><tspan x="3290" y="2618.01" font-size="80px">17</tspan></text>
<text x="2768.48" y="2682.27"><tspan x="2768.48" y="2682.27" font-size="100px">10</tspan></text>
<text x="2910" y="2618.01"><tspan x="2910" y="2618.01" font-size="80px">18</tspan></text>
<text x="2642.8" y="2800"><tspan x="2642.8" y="2800" font-size="95px">1 Exahertz</tspan></text>
<text x="2388.8999" y="2682.27"><tspan x="2388.8999" y="2682.27" font-size="100px">10</tspan></text>
<text x="2530" y="2618.01"><tspan x="2530" y="2618.01" font-size="80px">19</tspan></text>
<text x="2010.62" y="2682.27"><tspan x="2010.62" y="2682.27" font-size="100px">10</tspan></text>
<text x="2160" y="2618.01"><tspan x="2160" y="2618.01" font-size="80px">20</tspan></text>
<text x="1627.58" y="2682.27"><tspan x="1627.58" y="2682.27" font-size="100px">10</tspan></text>
<text x="1770" y="2618.01"><tspan x="1770" y="2618.01" font-size="80px">21</tspan></text>
<text x="1473.25" y="2800"><tspan x="1473.25" y="2800" font-size="95px">1 Zettahertz</tspan></text>
<text x="1248" y="2682.27"><tspan x="1248" y="2682.27" font-size="100px">10</tspan></text>
<text x="1390" y="2618.01"><tspan x="1390" y="2618.01" font-size="80px">22</tspan></text>
<text x="869.71997" y="2682.27"><tspan x="869.71997" y="2682.27" font-size="100px">10</tspan></text>
<text x="1015" y="2618.01"><tspan x="1015" y="2618.01" font-size="80px">23</tspan></text>
<text x="5805" y="2682.27"><tspan x="5805" y="2682.27" font-size="100px">10</tspan></text>
<text x="5950" y="2618.01"><tspan x="5950" y="2618.01" font-size="80px">10</tspan></text>
<text x="6184.5801" y="2682.27"><tspan x="6184.5801" y="2682.27" font-size="100px">10</tspan></text>
<text x="6330" y="2618.01"><tspan x="6330" y="2618.01" font-size="80px">9</tspan></text>
<text x="6038.8398" y="2800"><tspan x="6038.8398" y="2800" font-size="95px">1 Gigahertz</tspan></text>
<text x="6564.1401" y="2682.27"><tspan x="6564.1401" y="2682.27" font-size="100px">10</tspan></text>
<text x="6710" y="2618.01"><tspan x="6710" y="2618.01" font-size="80px">8</tspan></text>
<text x="6943.7202" y="2682.27"><tspan x="6943.7202" y="2682.27" font-size="100px">10</tspan></text>
<text x="7085" y="2618.01"><tspan x="7085" y="2618.01" font-size="80px">7</tspan></text>
<text x="7323.2798" y="2682.27"><tspan x="7323.2798" y="2682.27" font-size="100px">10</tspan></text>
<text x="7470" y="2618.01"><tspan x="7470" y="2618.01" font-size="80px">6</tspan></text>
<text x="7157.4702" y="2800"><tspan x="7157.4702" y="2800" font-size="95px">1 Megahertz</tspan></text>
<text x="7702.8599" y="2682.27"><tspan x="7702.8599" y="2682.27" font-size="100px">10</tspan></text>
<text x="7850" y="2618.01"><tspan x="7850" y="2618.01" font-size="80px">5</tspan></text>
<text x="8082.4199" y="2682.27"><tspan x="8082.4199" y="2682.27" font-size="100px">10</tspan></text>
<text x="8230" y="2618.01"><tspan x="8230" y="2618.01" font-size="80px">4</tspan></text>
<text x="8461.9902" y="2682.27"><tspan x="8461.9902" y="2682.27" font-size="100px">10</tspan></text>
<text x="8610" y="2618.01"><tspan x="8610" y="2618.01" font-size="80px">3</tspan></text>
<text x="8339.1699" y="2800"><tspan x="8339.1699" y="2800" font-size="95px">1 Kilohertz</tspan></text>
<text x="8841.5596" y="2682.27"><tspan x="8841.5596" y="2682.27" font-size="100px">10</tspan></text>
<text x="8990" y="2618.01"><tspan x="8990" y="2618.01" font-size="80px">2</tspan></text>
<text font-size="107.48px"><tspan x="8360" y="1903.87" font-size="92.5px">Wechselströme</tspan></text>
<text x="8238.5703" y="1600.5601"><tspan x="8238.5703" y="1600.5601">hoch-</tspan> <tspan x="8533.6104" y="1600.5601">mittel-</tspan> <tspan x="8856.4697" y="1600.5601">nieder-</tspan> <tspan x="8476.4404" y="1731">frequente</tspan></text>
<text x="8382.2402" y="2375.6101"><tspan x="8382.2402" y="2375.6101" font-size="100px">10</tspan></text>
<text x="8525" y="2311.3601"><tspan x="8525" y="2311.3601" font-size="80px">5</tspan></text>
<text x="8006.5801" y="2375.6101"><tspan x="8006.5801" y="2375.6101" font-size="100px">10</tspan></text>
<text x="8145" y="2311.3601"><tspan x="8145" y="2311.3601" font-size="80px">4</tspan></text>
<text x="8755.7402" y="2375.6101"><tspan x="8755.7402" y="2375.6101" font-size="100px">10</tspan></text>
<text x="8890" y="2311.3601"><tspan x="8890" y="2311.3601" font-size="80px">6</tspan></text>
<text x="9129.25" y="2375.6101"><tspan x="9129.25" y="2375.6101" font-size="100px">10</tspan></text>
<text x="9265" y="2311.3601"><tspan x="9265" y="2311.3601" font-size="80px">7</tspan></text>
<text x="7630.9399" y="2375.6101"><tspan x="7630.9399" y="2375.6101" font-size="100px">10</tspan></text>
<text x="7775" y="2311.3601"><tspan x="7775" y="2311.3601" font-size="80px">3</tspan></text>
<text x="7255.3101" y="2375.6101"><tspan x="7255.3101" y="2375.6101" font-size="100px">10</tspan></text>
<text x="7400" y="2311.3601"><tspan x="7400" y="2311.3601" font-size="80px">2</tspan></text>
<text x="6879.6602" y="2375.6101"><tspan x="6879.6602" y="2375.6101" font-size="100px">10</tspan></text>
<text x="7025" y="2311.3601"><tspan x="7025" y="2311.3601" font-size="80px">1</tspan></text>
<text x="6504.02" y="2375.6101"><tspan x="6504.02" y="2375.6101" font-size="100px">10</tspan></text>
<text x="6650" y="2311.3601"><tspan x="6650" y="2311.3601" font-size="80px">0</tspan></text>
<text x="6094.0498" y="2375.6101"><tspan x="6094.0498" y="2375.6101" font-size="100px">10</tspan></text>
<text x="6240" y="2311.3601"><tspan x="6240" y="2311.3601" font-size="80px">−1</tspan></text>
<text x="5718.4199" y="2375.6101"><tspan x="5718.4199" y="2375.6101" font-size="100px">10</tspan></text>
<text x="5860" y="2311.3601"><tspan x="5860" y="2311.3601" font-size="80px">−2</tspan></text>
<text x="5342.7598" y="2375.6101"><tspan x="5342.7598" y="2375.6101" font-size="100px">10</tspan></text>
<text x="5490" y="2311.3601"><tspan x="5490" y="2311.3601" font-size="80px">−3</tspan></text>
<text x="4967.1299" y="2375.6101"><tspan x="4967.1299" y="2375.6101" font-size="100px">10</tspan></text>
<text x="5110" y="2311.3601"><tspan x="5110" y="2311.3601" font-size="80px">−4</tspan></text>
<text x="4591.48" y="2375.6101"><tspan x="4591.48" y="2375.6101" font-size="100px">10</tspan></text>
<text x="4740" y="2311.3601"><tspan x="4740" y="2311.3601" font-size="80px">−5</tspan></text>
<text x="4215.8501" y="2375.6101"><tspan x="4215.8501" y="2375.6101" font-size="100px">10</tspan></text>
<text x="4360" y="2311.3601"><tspan x="4360" y="2311.3601" font-size="80px">−6</tspan></text>
<text x="3840.2" y="2375.6101"><tspan x="3840.2" y="2375.6101" font-size="100px">10</tspan></text>
<text x="3985" y="2311.3601"><tspan x="3985" y="2311.3601" font-size="80px">−7</tspan></text>
<text x="3464.5901" y="2375.6101"><tspan x="3464.5901" y="2375.6101" font-size="100px">10</tspan></text>
<text x="3610" y="2311.3601"><tspan x="3610" y="2311.3601" font-size="80px">−8</tspan></text>
<text x="3088.9299" y="2375.6101"><tspan x="3088.9299" y="2375.6101" font-size="100px">10</tspan></text>
<text x="3235" y="2311.3601"><tspan x="3235" y="2311.3601" font-size="80px">−9</tspan></text>
<text x="2655.9399" y="2375.6101"><tspan x="2655.9399" y="2375.6101" font-size="100px">10</tspan></text>
<text x="2800" y="2311.3601"><tspan x="2800" y="2311.3601" font-size="80px">−10</tspan></text>
<text x="2287.97" y="2375.6101"><tspan x="2287.97" y="2375.6101" font-size="100px">10</tspan></text>
<text x="2430" y="2311.3601"><tspan x="2430" y="2311.3601" font-size="80px">−11</tspan></text>
<text x="1904.67" y="2375.6101"><tspan x="1904.67" y="2375.6101" font-size="100px">10</tspan></text>
<text x="2050" y="2311.3601"><tspan x="2050" y="2311.3601" font-size="80px">−12</tspan></text>
<text x="1529.02" y="2375.6101"><tspan x="1529.02" y="2375.6101" font-size="100px">10</tspan></text>
<text x="1675" y="2311.3601"><tspan x="1675" y="2311.3601" font-size="80px">−13</tspan></text>
<text x="1153.39" y="2375.6101"><tspan x="1153.39" y="2375.6101" font-size="100px">10</tspan></text>
<text x="1290" y="2311.3601"><tspan x="1290" y="2311.3601" font-size="80px">−14</tspan></text>
<text x="777.76001" y="2375.6101"><tspan x="777.76001" y="2375.6101" font-size="100px">10</tspan></text>
<text x="920" y="2311.3601"><tspan x="920" y="2311.3601" font-size="80px">−15</tspan></text>
<text x="7581.54" y="1731"><tspan x="7581.54" y="1731">Langwelle</tspan></text>
<text x="7383" y="1600.5601"><tspan x="7383" y="1600.5601">Mittelwelle</tspan></text>
<text x="3773.1101" y="1629.8199"><tspan x="3773.1101" y="1629.8199">UV-</tspan> <tspan x="3773.1101" y="1717.3">C/B/A</tspan></text>
<text x="2256.8101" y="1600.5601"><tspan x="2256.8101" y="1600.5601">harte-</tspan> <tspan x="2609.53" y="1600.5601">mittlere-</tspan> <tspan x="3101.6201" y="1600.5601">weiche-</tspan></text>
<text><tspan x="6948.9199" y="1903.87">Rundfunk</tspan></text>
<text><tspan x="5620" y="1903.87">Mikrowellen</tspan></text>
<text x="4865.75" y="1603.34"><tspan x="4865.75" y="1603.34">Terahertz-</tspan> <tspan x="4886.5801" y="1690.8199">strahlung</tspan></text>
<text><tspan x="2450" y="1768.5699">Röntgenstrahlung</tspan></text>
<text x="6697.71" y="1600.5601"><tspan x="6697.71" y="1600.5601">UKW</tspan></text>
<text x="6497.71" y="1731"><tspan x="6497.71" y="1731">VHF</tspan></text>
<text x="6357.6899" y="1600.5601"><tspan x="6357.6899" y="1600.5601">UHF</tspan></text>
<text x="4339.5801" y="1603.34"><tspan x="4339.5801" y="1603.34">Infrarot-</tspan> <tspan x="4306.6499" y="1690.8199">strahlung</tspan></text>
<text x="5471.9902" y="1600.5601"><tspan x="5471.9902" y="1600.5601">Radar</tspan></text>
<text x="5848.3101" y="1600.5601"><tspan x="5848.3101" y="1600.5601">MW-Herd</tspan></text>
<text x="3551.49" y="1854.41"><tspan x="3551.49" y="1854.41">Ultraviolett-</tspan> <tspan x="3551.49" y="1953.61">strahlung</tspan></text>
<text x="1648.7" y="1603.3199"><tspan x="1648.7" y="1603.3199">Gamma-</tspan> <tspan x="1636.63" y="1690.8199">strahlung</tspan></text>
<text x="1021.46" y="1603.3199"><tspan x="1021.46" y="1603.3199">Höhen-</tspan> <tspan x="976.64001" y="1690.8199">strahlung</tspan></text>
<text x="102.53" y="2314.1899"><tspan x="102.53" y="2314.1899">Wellenlänge</tspan> <tspan x="102.53" y="2413.3999">in m</tspan></text>
<text x="102.53" y="2600"><tspan x="102.53" y="2600">Frequenz</tspan> <tspan x="102.53" y="2699.21">in Hz (Hertz)</tspan></text>
<text x="102.53" y="1500"><tspan x="102.53" y="1500">Quelle/</tspan> <tspan x="102.53" y="1599.21">Anwendung/</tspan> <tspan x="102.53" y="1700">Vorkommen</tspan></text>
<text x="6955.4399" y="1731"><tspan x="6955.4399" y="1731">Kurzwelle</tspan></text>
<path d="m880.45 2010.2v-351.55m8352 831.14h-8352.5m8352.5-327.7h-8352.5m1139.2-392.1v240.21m759.1-160.3v160.3m379.6-160.3v160.3m1138.7-30v30m1138.7-50.214v50.214m379.5-50.214v50.214m759.2-50.214v50.214m1138.7-114.84v114.84m1138.7-71.274v71.274m-7971.5 135v112.5m0 150v82.5m380.05-720.21v487.71m0 150v82.5m379.6-720.21v487.71m0 150v82.5m379.6-345v112.5m0 150v82.5m379.5-640.3v407.8m0 150v82.5m379.6-345v112.5m0 150v82.5m379.6-345v112.5m0 150v82.5m379.19-481.92 0.3097 249.42m0 150v82.5m379.6-481.92v249.42m0 150v82.5m379.6-345v112.5m0 150v82.5m379.5-521.01v288.51m0 150v82.5m379.6-521.01v288.51m0 150v82.5m379.6-345v112.5m0 150v82.5m379.5-345v112.5m0 150v82.5m379.6-530.21v297.71m0 150v82.5m379.6-345v112.5m0 150v82.5m379.5-530.21v297.71m0 150v82.5m379.6-530.21v297.71m0 150v82.5m379.6-345v112.5m0 150v82.5m379.6-576.86v344.36m0 150v82.5m379.5-551.27v318.77m0 150v82.5m379.6-345v112.5m0 150v82.5m379.5-551.27v318.77m0 150v82.5" fill="none" font-family="Verdana, sans-serif" font-size="92.5px" stroke="#7f7f7f" stroke-width="5.67"/>
</svg>
